<svg width="56" height="56" viewBox="0 0 56 56" fill="none" xmlns="http://www.w3.org/2000/svg">
<g clip-path="url(#clip0_1_9)">
<path d="M12.4444 31.1111C5.59001 31.1111 0 36.7011 0 43.5556C0 50.41 5.59001 56 12.4444 56C19.2989 56 24.8889 50.41 24.8889 43.5556C24.8889 36.7011 19.2989 31.1111 12.4444 31.1111Z" fill="black"/>
<path d="M32.6666 31.1111C32.2541 31.1112 31.8585 31.2751 31.5667 31.5668C31.275 31.8585 31.1111 32.2541 31.1111 32.6667V54.4444C31.1111 54.857 31.275 55.2526 31.5667 55.5443C31.8585 55.8361 32.2541 56 32.6666 56H54.4444C54.857 56 55.2526 55.8361 55.5443 55.5443C55.836 55.2526 55.9999 54.857 56 54.4444V32.6667C55.9999 32.2541 55.836 31.8585 55.5443 31.5668C55.2526 31.2751 54.857 31.1112 54.4444 31.1111H32.6666Z" fill="black"/>
<path d="M28 0C27.7397 0.000645258 27.4836 0.0666267 27.2554 0.191898C27.0271 0.317169 26.834 0.497724 26.6936 0.717014L12.6936 22.4948C12.5434 22.7296 12.459 23.0005 12.4493 23.279C12.4396 23.5576 12.5049 23.8337 12.6385 24.0784C12.772 24.3231 12.9688 24.5274 13.2083 24.67C13.4478 24.8126 13.7213 24.8882 14 24.8889H42C42.2788 24.8882 42.5522 24.8126 42.7917 24.67C43.0313 24.5274 43.2281 24.3231 43.3616 24.0784C43.4951 23.8337 43.5604 23.5576 43.5507 23.279C43.541 23.0005 43.4567 22.7296 43.3065 22.4948L29.3064 0.717014C29.1661 0.497724 28.9729 0.317169 28.7447 0.191898C28.5164 0.0666267 28.2604 0.000645258 28 0Z" fill="black"/>
</g>
<defs>
<clipPath id="clip0_1_9">
<rect width="56" height="56" fill="white"/>
</clipPath>
</defs>
</svg>
